<svg xmlns="http://www.w3.org/2000/svg" width="400" height="400" viewBox="0 0 400 400">
  <rect x="0" y="0" width="400" height="400" fill="#000000"/>
  <g transform="translate(185,200) rotate(-35)">
    <rect x="-5" y="-185" width="10" height="140" rx="4" fill="#FFFFFF"/>
    <rect x="-9" y="-50" width="18" height="26" rx="5" fill="#FFFFFF"/>
    <path d="M-32,-34 Q-40,10 -32,44 Q12,58 68,42 Q94,28 88,6 Q82,-22 62,-38 Q18,-48 -32,-34 Z" fill="#FFFFFF"/>
    <path d="M-22,-24 Q-8,-32 42,-30 Q68,-22 62,-8 Q32,-16 -22,-24 Z" fill="#000000" opacity="0.1"/>
    <path d="M-30,-28 Q-37,10 -30,40" stroke="#000000" stroke-width="4" fill="none" opacity="0.3"/>
    <line x1="-28" y1="-12" x2="2" y2="-14" stroke="#000000" stroke-width="2" opacity="0.22"/>
    <line x1="-29" y1="0" x2="7" y2="-2" stroke="#000000" stroke-width="2" opacity="0.22"/>
    <line x1="-30" y1="12" x2="10" y2="10" stroke="#000000" stroke-width="2" opacity="0.22"/>
    <line x1="-29" y1="24" x2="7" y2="22" stroke="#000000" stroke-width="2" opacity="0.22"/>
    <ellipse cx="38" cy="32" rx="20" ry="9" fill="#000000" opacity="0.1"/>
  </g>
</svg>