<svg xmlns="http://www.w3.org/2000/svg" width="400" height="400" viewBox="0 0 400 400">
  <rect x="0" y="0" width="400" height="400" fill="#000000"/>
  <g transform="translate(200,195) rotate(-5)">
    <rect x="-5" y="-190" width="10" height="130" rx="4" fill="#FFFFFF"/>
    <path d="M-5,-62 L-5,-42 Q-5,-35 -14,-32 L-34,-26 Q-42,-23 -44,-15 L-44,4" stroke="#FFFFFF" stroke-width="10" fill="none" stroke-linecap="round" stroke-linejoin="round"/>
    <path d="M-100,-8 L-100,28 Q-100,62 -74,66 L74,66 Q100,62 100,28 L100,-8 Q100,-28 84,-32 L-84,-32 Q-100,-28 -100,-8 Z" fill="#FFFFFF"/>
    <rect x="-90" y="-22" width="180" height="14" rx="3" fill="#000000" opacity="0.18"/>
    <line x1="-80" y1="-18" x2="-80" y2="-12" stroke="#000000" stroke-width="2" opacity="0.12"/>
    <line x1="-66" y1="-18" x2="-66" y2="-12" stroke="#000000" stroke-width="2" opacity="0.12"/>
    <line x1="-52" y1="-18" x2="-52" y2="-12" stroke="#000000" stroke-width="2" opacity="0.12"/>
    <line x1="-38" y1="-18" x2="-38" y2="-12" stroke="#000000" stroke-width="2" opacity="0.12"/>
    <line x1="-24" y1="-18" x2="-24" y2="-12" stroke="#000000" stroke-width="2" opacity="0.12"/>
    <line x1="-10" y1="-18" x2="-10" y2="-12" stroke="#000000" stroke-width="2" opacity="0.12"/>
    <line x1="4" y1="-18" x2="4" y2="-12" stroke="#000000" stroke-width="2" opacity="0.12"/>
    <line x1="18" y1="-18" x2="18" y2="-12" stroke="#000000" stroke-width="2" opacity="0.12"/>
    <line x1="32" y1="-18" x2="32" y2="-12" stroke="#000000" stroke-width="2" opacity="0.12"/>
    <line x1="46" y1="-18" x2="46" y2="-12" stroke="#000000" stroke-width="2" opacity="0.12"/>
    <line x1="60" y1="-18" x2="60" y2="-12" stroke="#000000" stroke-width="2" opacity="0.12"/>
    <line x1="74" y1="-18" x2="74" y2="-12" stroke="#000000" stroke-width="2" opacity="0.12"/>
    <line x1="-2" y1="-28" x2="-2" y2="8" stroke="#000000" stroke-width="4" opacity="0.15"/>
    <circle cx="-34" cy="18" r="6" fill="#000000" opacity="0.1"/>
    <circle cx="30" cy="18" r="6" fill="#000000" opacity="0.1"/>
    <path d="M-64,34 Q0,50 64,34 Q74,46 64,54 Q0,64 -64,54 Q-74,46 -64,34 Z" fill="#000000" opacity="0.08"/>
  </g>
</svg>