<svg xmlns="http://www.w3.org/2000/svg" width="400" height="400" viewBox="0 0 400 400">
  <rect x="0" y="0" width="400" height="400" fill="#000000"/>
  <g transform="translate(155,175) rotate(-15)">
    <rect x="-5" y="-190" width="10" height="138" rx="4" fill="#FFFFFF"/>
    <path d="M-8,-56 L-8,-24 Q-8,-16 0,-12 L8,-12 Q16,-16 16,-24 L16,-56 Z" fill="#FFFFFF"/>
    <path d="M2,-14 L2,18 Q-2,32 -10,45 L-14,68 Q-8,84 8,90 L106,92 Q132,86 138,72 Q140,58 132,46 L84,22 Q44,6 12,-6 L12,-14 Z" fill="#FFFFFF"/>
    <path d="M-12,66 Q54,96 132,70" stroke="#000000" stroke-width="4" fill="none" opacity="0.22"/>
    <path d="M-10,76 Q54,100 128,78" stroke="#000000" stroke-width="2" fill="none" opacity="0.12"/>
    <path d="M-14,62 L-18,78 Q-12,88 -6,84" fill="#000000" opacity="0.12"/>
    <line x1="0" y1="26" x2="54" y2="36" stroke="#000000" stroke-width="2.5" opacity="0.22"/>
    <line x1="-3" y1="33" x2="62" y2="43" stroke="#000000" stroke-width="2.5" opacity="0.22"/>
    <line x1="-6" y1="40" x2="70" y2="50" stroke="#000000" stroke-width="2.5" opacity="0.22"/>
    <line x1="-8" y1="47" x2="76" y2="57" stroke="#000000" stroke-width="2.5" opacity="0.22"/>
    <line x1="-10" y1="54" x2="82" y2="62" stroke="#000000" stroke-width="2.5" opacity="0.22"/>
    <line x1="-11" y1="61" x2="86" y2="67" stroke="#000000" stroke-width="2.5" opacity="0.22"/>
    <line x1="-12" y1="68" x2="88" y2="72" stroke="#000000" stroke-width="2.5" opacity="0.22"/>
    <line x1="-11" y1="75" x2="88" y2="78" stroke="#000000" stroke-width="2.5" opacity="0.22"/>
    <path d="M4,-12 L12,-12 Q44,4 84,20 L132,44" stroke="#000000" stroke-width="2" fill="none" opacity="0.12"/>
  </g>
</svg>