<svg xmlns="http://www.w3.org/2000/svg" width="400" height="400" viewBox="0 0 400 400">
  <rect x="0" y="0" width="400" height="400" fill="#000000"/>
  <g transform="translate(190,205) rotate(-35)">
    <rect x="-5" y="-185" width="10" height="140" rx="4" fill="#FFFFFF"/>
    <rect x="-9" y="-50" width="18" height="24" rx="5" fill="#FFFFFF"/>
    <ellipse cx="42" cy="14" rx="82" ry="50" fill="#FFFFFF"/>
    <ellipse cx="36" cy="2" rx="65" ry="28" fill="#000000" opacity="0.12"/>
    <path d="M-36,-32 Q-44,14 -36,50" stroke="#000000" stroke-width="4" fill="none" opacity="0.3"/>
    <line x1="-33" y1="-14" x2="-6" y2="-16" stroke="#000000" stroke-width="2" opacity="0.22"/>
    <line x1="-34" y1="-1" x2="-1" y2="-3" stroke="#000000" stroke-width="2" opacity="0.22"/>
    <line x1="-35" y1="12" x2="3" y2="10" stroke="#000000" stroke-width="2" opacity="0.22"/>
    <line x1="-34" y1="25" x2="-1" y2="23" stroke="#000000" stroke-width="2" opacity="0.22"/>
    <line x1="-33" y1="38" x2="-6" y2="36" stroke="#000000" stroke-width="2" opacity="0.22"/>
    <path d="M-18,48 Q42,62 112,34" stroke="#000000" stroke-width="3" fill="none" opacity="0.2"/>
    <circle cx="52" cy="36" r="10" fill="#000000" opacity="0.12"/>
  </g>
</svg>